<svg xmlns="http://www.w3.org/2000/svg" width="91" height="64" viewBox="0 0 91 64" fill="none">
  <path d="M89.1463 46.1066L69.5395 8.56952C66.6145 5.11674 60.9599 6.29577 60.9599 6.29577C58.6574 6.58701 51.7034 5.25557 51.7034 5.25557L46.5156 4.36078C41.5556 3.87385 35.0496 6.36913 35.0496 6.36913L30.7065 7.78672L22.9011 10.164C18.4973 10.9744 17.5783 15.8774 17.5783 15.8774L5.63099 54.3396C4.19006 58.9817 7.95281 63.5904 12.7895 63.1066L83.8026 56.0025C88.5833 55.5242 91.3689 50.3648 89.1459 46.1023L89.1463 46.1066Z" fill="#6AEC9E"/>
  <path d="M44.0721 17.3335C52.3332 16.5071 58.864 14.1769 58.6591 12.1288C58.4543 10.0808 51.5912 9.09051 43.3301 9.91694C35.069 10.7434 28.5382 13.0736 28.743 15.1216C28.9479 17.1696 35.811 18.16 44.0721 17.3335Z" fill="#39A965"/>
  <path d="M36.0833 35.968C35.8864 33.9998 36.9385 32.211 38.5618 31.4788L29.3191 32.4034C27.7729 32.5581 26.6522 34.01 26.8164 35.651L27.0624 38.1102C27.2261 39.7469 28.6126 40.9523 30.1588 40.7977L39.4015 39.873C37.6654 39.4769 36.2798 37.932 36.0829 35.9637L36.0833 35.968Z" fill="white"/>
  <path d="M42.5606 38.9261C41.7181 38.4623 41.1255 37.6689 41.0303 36.7171L40.7842 34.2578C40.689 33.306 41.1128 32.411 41.8467 31.7895C41.2389 31.4544 40.5046 31.2886 39.7293 31.3662L37.9333 31.5458C35.9784 32.3113 34.5904 34.1336 34.7873 36.1019C34.9842 38.0701 36.7057 39.5814 38.7735 39.9444L40.5695 39.7647C41.3448 39.6872 42.0317 39.3792 42.561 38.9304L42.5606 38.9261Z" fill="#1F2020"/>
  <path d="M50.7102 34.5048C50.5133 32.5365 51.5654 30.7478 53.1887 30.0155L43.498 30.985C42.951 31.0397 42.4553 31.2589 42.0535 31.5906C43.3111 32.2478 44.2376 33.5515 44.3958 35.1321C44.5539 36.7128 43.904 38.1741 42.8015 39.0674C43.261 39.3129 43.7904 39.4296 44.3373 39.3749L54.028 38.4055C52.2918 38.0093 50.9062 36.4644 50.7093 34.4962L50.7102 34.5048Z" fill="white"/>
  <path d="M44.4001 35.136C44.242 33.5554 43.3155 32.2517 42.0579 31.5945C41.9855 31.6539 41.9136 31.7177 41.8464 31.7853C42.5596 32.262 43.0705 33.0635 43.1657 34.0154L43.4117 36.4746C43.507 37.4265 43.165 38.3133 42.5603 38.9219C42.6396 38.9749 42.7184 39.0235 42.8054 39.067C43.908 38.1737 44.5578 36.7124 44.3997 35.1317L44.4001 35.136Z" fill="white"/>
  <path d="M40.9957 34.2369L41.2417 36.6961C41.3369 37.648 41.8478 38.4495 42.561 38.9262C43.1657 38.3176 43.5076 37.4308 43.4124 36.479L43.1664 34.0197C43.0712 33.0679 42.5603 32.2664 41.8471 31.7896C41.2424 32.3982 40.9005 33.285 40.9957 34.2369Z" fill="white"/>
  <path d="M57.5905 35.0605L57.3445 32.6013C57.1808 30.9646 55.5488 29.7837 53.7011 29.9685L52.4392 30.0948C50.4843 30.8602 49.0962 32.6825 49.2931 34.6508C49.49 36.6191 51.2116 38.1303 53.2794 38.4933L54.5413 38.3671C56.389 38.1823 57.7551 36.7058 57.591 35.0648L57.5905 35.0605Z" fill="#1F2020"/>
  <path d="M57.2687 42.8011C57.2687 42.8011 53.8492 48.6677 46.2194 46.9297" stroke="#1F2020" stroke-width="1.38446" stroke-linecap="round" stroke-linejoin="round"/>
  <path d="M68.4539 12.5888C67.6873 14.5796 65.2661 17.3361 58.0218 18.8873C57.1445 19.0752 57.1699 20.3298 58.052 20.4938C59.0181 20.6712 60.128 20.8082 61.3051 20.834C65.0065 20.9161 68.4095 22.8855 70.2405 26.0997L81.476 45.8343C81.5019 45.8752 81.5191 45.917 81.5367 45.9631C81.7301 46.5049 82.9509 50.1412 81.7816 52.1504C81.4362 52.7418 81.9014 53.4783 82.5793 53.3844C85.4762 52.9902 89.156 51.4214 87.2887 45.7574C87.2753 45.7109 87.2534 45.6652 87.2318 45.6239L69.9437 12.5225C69.6211 11.9066 68.7063 11.9372 68.4578 12.5841L68.4539 12.5888Z" fill="#54CC83"/>
  <path d="M30.0269 27.8997L43.3418 27.0842" stroke="#39A965" stroke-width="2.88643" stroke-linecap="round" stroke-linejoin="round"/>
</svg>