<svg xmlns="http://www.w3.org/2000/svg" width="97" height="98" viewBox="0 0 97 98" fill="none">
  <path d="M13.8105 46.0263C13.8105 46.0263 20.2065 19.3693 50.1549 20.8709C50.1549 20.8709 66.0388 20.4533 78.2528 38.695C78.2528 38.695 86.8241 51.4195 81.0824 66.7812C81.0824 66.7812 72.1367 94.4511 40.3228 85.6993C40.3228 85.6993 7.08125 76.3903 13.8105 46.0263Z" fill="#FF7E35"/>
  <path d="M63.2137 27.6372C62.7956 28.6796 60.496 28.7366 58.0755 27.7657C55.6551 26.7947 54.0323 25.1644 54.4505 24.122C54.8686 23.0796 57.1682 23.0226 59.5887 23.9936C62.0091 24.9645 63.6319 26.5948 63.2137 27.6372Z" fill="#DC6327"/>
  <path d="M60.1593 25.3559C60.4068 25.3526 60.6288 25.1955 60.7076 24.9606L63.8679 15.9318C63.8679 15.9318 64.5344 14.8711 62.6605 14.3143C62.6605 14.3143 60.9617 13.679 60.6268 14.5138L57.6281 23.7919C57.5616 23.996 57.61 24.2205 57.7592 24.3726C58.1273 24.7459 58.9283 25.3698 60.1593 25.3559Z" fill="#54CC83"/>
  <path d="M58.3232 22.0605C57.9764 19.7165 55.8648 12.8239 43.2522 6.39034L29.3984 0.392136C28.8825 0.169814 28.3474 0.647393 28.5024 1.18132C29.3197 4.02687 31.9801 10.9447 39.5535 16.6337C39.5535 16.6337 48.7321 23.7408 57.5773 22.9868C58.0501 22.9457 58.3934 22.5245 58.3232 22.0605Z" fill="#54CC83"/>
  <path d="M51.3994 46.2751C48.4047 45.0739 45.104 45.9137 43.0206 48.129C42.7977 45.6039 41.2084 43.2896 38.6907 42.2797C35.1307 40.8517 31.0894 42.579 29.6613 46.139C28.2333 49.6991 29.9606 53.7403 33.5206 55.1684C36.1576 56.2262 39.0533 55.5521 40.9605 53.6866C41.0938 56.5756 42.8675 59.2613 45.7297 60.4094C49.6342 61.9757 54.0716 60.0791 55.6378 56.1745C57.2041 52.2699 55.3075 47.8326 51.4029 46.2663L51.3994 46.2751Z" fill="white"/>
  <path d="M35.2507 50.8424C36.5144 51.3493 37.9496 50.7358 38.4565 49.4722C38.9634 48.2086 38.3499 46.7733 37.0863 46.2664C35.8227 45.7595 34.3874 46.373 33.8806 47.6366C33.3737 48.9002 33.9871 50.3355 35.2507 50.8424Z" fill="#040000"/>
  <path d="M47.4235 55.2279C48.7116 55.7445 50.1745 55.1192 50.6912 53.8312C51.2079 52.5432 50.5826 51.0802 49.2946 50.5636C48.0065 50.0469 46.5436 50.6722 46.0269 51.9602C45.5102 53.2482 46.1355 54.7112 47.4235 55.2279Z" fill="#040000"/>
  <path d="M35.8923 62.7293C36.8803 63.1256 38.0024 62.6459 38.3987 61.658C38.795 60.67 38.3154 59.5478 37.3274 59.1515C36.3395 58.7552 35.2173 59.2349 34.821 60.2228C34.4247 61.2108 34.9043 62.333 35.8923 62.7293Z" fill="#040000"/>
  <path d="M74.308 46.4965C73.8884 46.3282 73.5679 45.9381 73.4783 45.4202C72.5767 40.2026 67.371 35.3096 67.3197 35.2583C66.7326 34.7151 66.7035 33.7138 67.2556 33.0276C67.8033 32.3397 68.727 32.2231 69.3097 32.7645C69.5525 32.9901 75.2642 38.3476 76.3433 44.5799C76.4901 45.4284 75.9661 46.3002 75.1758 46.5318C74.8734 46.6208 74.573 46.6028 74.3124 46.4983L74.308 46.4965Z" fill="#FFC2A2" fill-opacity="0.5"/>
</svg>