<svg xmlns="http://www.w3.org/2000/svg" width="84" height="101" viewBox="0 0 84 101" fill="none">
  <path d="M70.2367 42.1142C69.2799 35.6167 63.2379 31.1292 56.7444 32.0854C54.4419 32.4244 52.3917 33.4067 50.7485 34.8146C50.7512 34.2126 50.7108 33.6003 50.6205 32.9871C49.6638 26.4896 43.6217 22.0021 37.1283 22.9583C30.6307 23.915 26.1433 29.957 27.0994 36.4505C27.2411 37.413 27.4964 38.3296 27.8479 39.1948C25.8278 38.2683 23.528 37.8933 21.1645 38.2414C14.667 39.1981 10.1795 45.2401 11.1357 51.7336C12.0183 57.7276 17.2293 62.0096 23.136 61.8867C21.2257 64.3545 20.2793 67.5641 20.7697 70.8941C21.7264 77.3917 27.7684 81.8791 34.2619 80.923C39.9473 80.0858 44.0967 75.3548 44.4032 69.8289C46.4479 74.7265 51.6108 77.8083 57.1053 76.9992C63.5988 76.0431 68.0903 70.0004 67.1342 63.507C66.6145 59.978 64.594 57.0476 61.8196 55.253C67.4289 53.618 71.1162 48.0589 70.2408 42.1136L70.2367 42.1142Z" fill="#FFF383"/>
  <path d="M45.2315 74.1007C45.2315 74.1007 51.4575 86.1496 49.0128 95.0192C49.0128 95.0192 44.0769 88.0123 45.2315 74.1007Z" fill="#EFDA71"/>
  <path d="M79.8945 62.8147C79.8945 62.8147 77.4735 78.8047 56.4634 92.051C56.4634 92.051 60.1048 74.8814 79.8945 62.8147Z" fill="#EFDA71"/>
  <path d="M9.39128 74.9097C9.39128 74.9097 25.5405 75.7639 40.765 95.3874C40.765 95.3874 23.3212 93.4335 9.39128 74.9097Z" fill="#EFDA71"/>
  <path d="M46.7774 13.198C45.8444 13.3354 44.9767 12.6904 44.8393 11.7574C44.7019 10.8244 45.3469 9.95669 46.2799 9.81931C47.2129 9.68193 48.0806 10.3269 48.218 11.2599C48.3554 12.1929 47.7104 13.0606 46.7774 13.198Z" fill="#FFF383"/>
  <path d="M37.0899 9.05643C36.1569 9.19381 35.2892 8.54883 35.1518 7.61582C35.0144 6.68281 35.6594 5.81509 36.5924 5.67771C37.5254 5.54033 38.3931 6.18531 38.5305 7.11832C38.6679 8.05132 38.0229 8.91905 37.0899 9.05643Z" fill="#FFF383"/>
  <path d="M45.3368 19.5299C44.7312 19.6191 44.1681 19.2005 44.0789 18.5949C43.9897 17.9893 44.4083 17.4262 45.0139 17.337C45.6195 17.2478 46.1826 17.6664 46.2718 18.272C46.361 18.8776 45.9424 19.4407 45.3368 19.5299Z" fill="#FFF383"/>
  <path d="M39.8168 15.8535C39.2112 15.9427 38.648 15.5241 38.5589 14.9185C38.4697 14.3129 38.8883 13.7498 39.4939 13.6606C40.0994 13.5714 40.6626 13.99 40.7518 14.5956C40.8409 15.2012 40.4223 15.7643 39.8168 15.8535Z" fill="#FFF383"/>
  <path d="M34.5253 16.2426C33.9197 16.3317 33.3565 15.9131 33.2674 15.3075C33.1782 14.702 33.5968 14.1388 34.2024 14.0496C34.8079 13.9605 35.3711 14.3791 35.4603 14.9846C35.5494 15.5902 35.1308 16.1534 34.5253 16.2426Z" fill="#FFF383"/>
  <path d="M24.3026 26.1119C23.6971 26.2011 23.1339 25.7825 23.0447 25.1769C22.9555 24.5714 23.3742 24.0082 23.9797 23.919C24.5853 23.8299 25.1485 24.2485 25.2376 24.854C25.3268 25.4596 24.9082 26.0228 24.3026 26.1119Z" fill="#FFF383"/>
  <path d="M32.6478 21.3984C32.0423 21.4876 31.4791 21.069 31.3899 20.4634C31.3008 19.8579 31.7194 19.2947 32.3249 19.2055C32.9305 19.1164 33.4937 19.535 33.5828 20.1405C33.672 20.7461 33.2534 21.3093 32.6478 21.3984Z" fill="#FFF383"/>
  <path d="M27.7865 19.1102C27.1809 19.1994 26.6178 18.7808 26.5286 18.1752C26.4394 17.5697 26.858 17.0065 27.4636 16.9173C28.0692 16.8281 28.6323 17.2468 28.7215 17.8523C28.8107 18.4579 28.3921 19.0211 27.7865 19.1102Z" fill="#FFF383"/>
  <path d="M21.8288 13.7558C21.0932 13.8641 20.409 13.3555 20.3007 12.6199C20.1924 11.8842 20.7009 11.2001 21.4366 11.0918C22.1722 10.9834 22.8564 11.492 22.9647 12.2276C23.073 12.9633 22.5645 13.6474 21.8288 13.7558Z" fill="#FFF383"/>
  <path d="M29.7521 13.0452C28.9671 13.1608 28.2371 12.6182 28.1215 11.8332C28.0059 11.0482 28.5486 10.3182 29.3335 10.2026C30.1185 10.087 30.8486 10.6296 30.9642 11.4146C31.0798 12.1996 30.5371 12.9297 29.7521 13.0452Z" fill="#FFF383"/>
  <path d="M19.8701 17.6703C18.9686 17.8031 18.3493 18.6411 18.4814 19.5386C18.6136 20.436 19.4522 21.0594 20.3497 20.9272C21.2471 20.7951 21.8705 19.9565 21.7383 19.059C21.6056 18.1575 20.7676 17.5382 19.8701 17.6703Z" fill="#FFF383"/>
  <path d="M33.3615 43.3376C33.0011 43.3907 32.6576 43.4846 32.3301 43.614C33.775 43.829 35.0208 45.1562 35.2807 46.921C35.5881 49.0091 34.4016 50.9164 32.6316 51.1771C31.1053 51.4018 29.6476 50.3278 29.0762 48.6901C29.0708 49.0212 29.0935 49.359 29.1434 49.6981C29.5999 52.7984 32.2282 54.9833 35.0158 54.5728C37.8034 54.1624 39.6904 51.3126 39.2339 48.2123C38.7774 45.1121 36.1491 42.9272 33.3615 43.3376Z" fill="#F4F9F7"/>
  <path d="M32.6367 51.1763C34.4068 50.9156 35.5933 49.0083 35.2858 46.9202C35.0259 45.1554 33.7854 43.8275 32.3352 43.6132C30.406 44.3738 29.1108 46.3892 29.0806 48.684C29.652 50.3217 31.1096 51.3957 32.6359 51.171L32.6367 51.1763Z" fill="#151616"/>
  <path d="M43.4513 41.8518C43.091 41.9048 42.7474 41.9987 42.42 42.1282C43.8648 42.3432 45.1107 43.6704 45.3705 45.4352C45.678 47.5232 44.4915 49.4306 42.7214 49.6912C41.1951 49.916 39.7375 48.8419 39.166 47.2043C39.1607 47.5353 39.1833 47.8731 39.2333 48.2123C39.6898 51.3126 42.3181 53.4975 45.1057 53.087C47.8933 52.6765 49.7803 49.8268 49.3238 46.7265C48.8673 43.6262 46.2389 41.4413 43.4513 41.8518Z" fill="#F4F9F7"/>
  <path d="M42.727 49.6904C44.4971 49.4298 45.6836 47.5224 45.3761 45.4344C45.1163 43.6696 43.8757 42.3416 42.4256 42.1274C40.4963 42.888 39.2012 44.9034 39.1709 47.1982C39.7423 48.8359 41.2 49.9099 42.7263 49.6851L42.727 49.6904Z" fill="#151616"/>
  <path d="M37.1584 59.0165C37.1584 59.0165 45.6131 62.7854 48.0781 54.9991" stroke="#151616" stroke-width="1.26041" stroke-linecap="round" stroke-linejoin="round"/>
</svg>