<svg xmlns="http://www.w3.org/2000/svg" width="87" height="93" viewBox="0 0 87 93" fill="none">
  <path d="M67.0559 21.7347C51.5607 4.74827 34.1145 9.33356 34.1145 9.33356C34.1145 9.33356 16.7015 12.2989 11.3003 36.1371C11.3003 36.1371 5.57831 55.2409 15.8542 69.1179C15.8542 69.1179 28.8158 89.8546 52.4591 83.7052L52.4693 83.7446C52.7424 83.674 53.0115 83.6003 53.2789 83.5239C53.5496 83.4602 53.8221 83.3951 54.0952 83.3246L54.085 83.2852C78.7823 77.557 79.1785 52.7813 79.0447 52.7949C80.4433 35.4217 67.0559 21.7347 67.0559 21.7347Z" fill="#CCA9E4"/>
  <path d="M45.804 12.3978C51.4733 9.90624 48.0819 8.84672 48.0819 8.84672C42.0747 7.27955 32.4953 9.75825 32.4953 9.75825C26.5199 11.0689 21.9728 14.6836 21.9728 14.6836C20.7012 15.7288 21.2116 16.756 21.6361 17.2814C21.847 17.5423 22.1428 17.7122 22.4699 17.7865C23.5171 18.0241 26.2088 18.2537 29.9405 15.8116C30.1743 15.6586 30.4289 15.5025 30.7063 15.5361C30.8933 15.5588 31.1228 15.6398 31.3498 15.8556C31.3498 15.8556 33.1878 17.4737 35.7871 16.8422C35.7871 16.8422 38.459 16.1918 39.2918 13.7642C39.2918 13.7642 39.5455 13.0671 40.4728 13.1433C40.4728 13.1433 43.5314 13.6206 45.804 12.3978Z" fill="#6AEC9E"/>
  <path d="M49.3187 32.718C49.9475 32.5556 50.5795 32.4668 51.2047 32.4449C48.9557 33.7591 47.7867 36.6576 48.5374 39.5637C49.4258 43.0029 52.6602 45.1426 55.7617 44.3414C58.4358 43.6507 60.1338 40.9985 59.9812 38.0753C60.2105 38.5857 60.4034 39.1213 60.5482 39.6818C61.8674 44.7889 58.9788 49.9518 54.0962 51.213C49.2137 52.4742 44.186 49.3563 42.8668 44.2492C41.5475 39.1421 44.4362 33.9793 49.3187 32.718Z" fill="#F3F8F6"/>
  <path d="M55.7618 44.3403C52.6603 45.1414 49.4261 43.0027 48.5375 39.5625C47.7868 36.6564 48.9551 33.7592 51.2048 32.4437C54.9016 32.3123 58.3927 34.541 59.9823 38.0738C60.1336 40.9963 58.4369 43.6492 55.7628 44.34L55.7618 44.3403Z" fill="#151616"/>
  <path d="M31.6361 37.2857C32.2648 37.1232 32.8969 37.0345 33.5221 37.0125C31.2731 38.3267 30.1041 41.2252 30.8548 44.1313C31.7431 47.5705 34.9776 49.7102 38.0791 48.909C40.7532 48.2183 42.4511 45.5661 42.2986 42.6429C42.5279 43.1533 42.7208 43.6889 42.8656 44.2495C44.1848 49.3566 41.2962 54.5194 36.4136 55.7806C31.5311 57.0419 26.5034 53.9239 25.1842 48.8168C23.8649 43.7097 26.7535 38.5469 31.6361 37.2857Z" fill="#F3F8F6"/>
  <path d="M38.0801 48.9079C34.9787 49.709 31.7445 47.5703 30.8559 44.1302C30.1052 41.224 31.2735 38.3268 33.5232 37.0113C37.22 36.8799 40.7111 39.1086 42.3007 42.6415C42.453 45.5637 40.7552 48.2169 38.0811 48.9076L38.0801 48.9079Z" fill="#151616"/>
  <path d="M56.5413 47.6481L58.1482 48.8833C58.1482 48.8833 57.5389 53.4332 60.9836 54.054C60.9836 54.054 68.4309 53.3095 60.0699 46.038L56.5413 47.6481Z" fill="#F3F8F6"/>
  <path d="M40.7928 63.9831C40.9919 62.5552 41.4457 60.9609 42.4923 59.909C43.4374 58.9588 44.7526 58.5247 45.9731 59.1399C46.8044 59.5588 47.6083 60.0299 48.5694 60.0387C49.6059 60.0469 50.5683 59.5412 51.0285 58.5967C51.1963 58.2523 51.3185 57.6909 51.4169 57.4389C51.4025 57.4762 51.2988 57.4967 51.2682 57.4962C51.35 57.4961 51.5102 57.4956 51.5742 57.5042C52.0576 57.5661 52.545 57.7612 53.012 57.8934C53.5312 58.0415 54.0512 58.1883 54.5705 58.3364C56.1448 58.7837 56.8339 56.3397 55.2618 55.8929C54.4182 55.6534 53.5754 55.4053 52.7287 55.174C51.8819 54.9426 50.9679 54.8242 50.1546 55.2419C49.3414 55.6597 49.0827 56.4273 48.8453 57.2283C48.8343 57.2668 48.7588 57.5181 48.7949 57.4469C48.8099 57.4158 48.6517 57.5091 48.7312 57.4885C48.5908 57.5248 48.2525 57.4527 48.01 57.3454C47.354 57.0575 46.7617 56.6429 46.0566 56.461C45.2661 56.2571 44.4378 56.2676 43.6448 56.4472C42.0922 56.798 40.7986 57.8108 39.8966 59.094C38.8966 60.5168 38.4919 62.2443 38.256 63.9397C38.161 64.6188 38.8791 65.2201 39.5043 65.2307C40.2598 65.2422 40.6984 64.6642 40.7935 63.9818L40.7928 63.9831Z" fill="#7C5F90"/>
  <path d="M22.2376 38.1241C26.1086 37.5354 30.2626 36.7477 33.0127 33.6937C33.4703 33.1852 33.5208 32.4032 33.0184 31.8983C32.5551 31.4315 31.6844 31.3795 31.2246 31.8916C28.7866 34.5997 25.02 35.1467 21.6027 35.6664C20.9241 35.7694 20.5333 36.5973 20.6923 37.213C20.8785 37.9339 21.5572 38.2285 22.2379 38.1251L22.2376 38.1241Z" fill="#7C5F90"/>
  <path d="M42.8019 30.3541C46.8877 31.4409 51.2922 31.2536 55.2448 29.7395C55.8847 29.4945 56.3408 28.9109 56.1553 28.193C55.9986 27.5862 55.2536 27.0348 54.6097 27.2809C51.0545 28.642 47.1788 28.892 43.4932 27.9106C41.9132 27.4899 41.2219 29.9335 42.8019 30.3541Z" fill="#7C5F90"/>
  <ellipse cx="17.0002" cy="59.2382" rx="1.47179" ry="2.00887" transform="rotate(-27.4486 17.0002 59.2382)" fill="#DBB7F4"/>
  <ellipse cx="30.2277" cy="64.409" rx="1.47179" ry="2.00887" transform="rotate(-27.4486 30.2277 64.409)" fill="#DBB7F4"/>
  <ellipse cx="26.6081" cy="73.2822" rx="1.47179" ry="2.00887" transform="rotate(-27.4486 26.6081 73.2822)" fill="#DBB7F4"/>
  <ellipse cx="73.9966" cy="52.9279" rx="1.47179" ry="2.00887" transform="rotate(31.1087 73.9966 52.9279)" fill="#DBB7F4"/>
  <ellipse cx="69.9366" cy="61.724" rx="1.47179" ry="2.00887" transform="rotate(31.1087 69.9366 61.724)" fill="#DBB7F4"/>
  <ellipse cx="68.9799" cy="43.3628" rx="1.47179" ry="2.00887" transform="rotate(3.09338 68.9799 43.3628)" fill="#DBB7F4"/>
</svg>