<svg xmlns="http://www.w3.org/2000/svg" width="101" height="74" viewBox="0 0 101 74" fill="none">
  <path d="M46.4114 19.9503L43.3522 16.421C43.2278 16.2797 43.0839 16.1623 42.9177 16.0794C41.012 15.1053 28.8483 9.50153 17.4429 18.7412C16.5379 19.475 15.7988 20.4055 15.391 21.4971C14.9832 22.5886 14.859 24.0097 16.09 25.0649C16.1494 25.1114 16.2089 25.1579 16.2721 25.1987C16.694 25.459 18.4754 25.9704 19.8212 24.7115C19.9446 24.5959 20.3473 24.1235 20.4514 23.9873C20.9326 23.3745 21.0104 22.794 21.5667 21.6804C21.5667 21.6804 22.6987 19.3599 25.1447 18.3883C26.8075 17.7286 28.0065 20.0367 26.4835 20.9777C26.4488 21 26.4177 21.0166 26.383 21.0389C26.2514 21.1167 26.1296 21.2171 26.0261 21.3333C25.559 21.874 24.9822 23.0069 26.3461 23.6922C26.795 23.9169 27.2998 24.011 27.8038 23.9865C28.4652 23.9578 29.6916 24.1882 29.3197 26.434" fill="#CDE5FF"/>
  <path d="M83.9317 19.8867C78.8351 7.12448 70.0857 14.6452 70.0857 14.6452C69.059 15.687 68.2063 16.7557 67.2442 18.9011C67.2442 18.9011 64.5909 24.9955 63.1389 29.1599C63.1389 29.1599 61.2748 35.7964 59.5067 35.8062C59.5067 35.8062 59.4814 35.8265 59.4315 35.8472C54.9943 36.8026 50.3458 31.3113 50.3458 31.3113C45.2412 21.4285 41.4238 20.9451 41.4238 20.9451C32.7671 17.4145 26.3258 34.7822 26.3184 34.7937L20.614 50.6924L12.1373 73.8781L100.598 54.831L95.8769 43.9263L83.9317 19.8867Z" fill="#99C9FF"/>
  <path d="M58.0931 46.2124C58.2118 46.4885 58.3033 46.7753 58.3684 47.0778C58.928 49.6768 57.2732 52.2334 54.6742 52.793C52.0752 53.3526 49.5186 51.6978 48.96 49.1036C48.9345 48.9854 48.9196 48.87 48.9036 48.7498C47.6244 50.4789 47.0591 52.7219 47.5475 54.9901C48.448 59.1721 52.5667 61.8355 56.7534 60.934C60.9402 60.0325 63.5989 55.9148 62.6974 51.7281C62.1418 49.148 60.3624 47.1528 58.0978 46.2114L58.0931 46.2124Z" fill="white"/>
  <path d="M54.6797 52.7968C57.2787 52.2372 58.9325 49.6758 58.3739 47.0815C58.3088 46.7791 58.2116 46.4885 58.0986 46.2162C56.6915 45.6291 55.0999 45.4477 53.4932 45.7936C51.5794 46.2057 49.9904 47.2994 48.9054 48.7593C48.9204 48.8747 48.9363 48.9949 48.9618 49.113C49.5214 51.7121 52.0817 53.3611 54.676 52.8025L54.6797 52.7968Z" fill="#232323"/>
  <path d="M46.8188 51.6066L44.6569 52.6803C45.0451 53.3581 45.2795 54.1482 45.2942 55.0202C45.3282 57.0155 44.0698 58.8637 42.1991 59.5681C39.6788 60.5163 37.0284 59.2525 36.0552 56.9601C34.0099 57.979 33.1913 60.4693 34.2365 62.499L35.7533 65.4556L50.0038 57.7641L46.8188 51.6066Z" fill="white"/>
  <path d="M41.4924 59.7747C44.0915 59.2151 45.7405 56.6548 45.1819 54.0605C45.0751 53.5643 44.892 53.1043 44.6525 52.6812L36.0498 56.9564C36.9327 59.0358 39.1959 60.2692 41.4877 59.7757L41.4924 59.7747Z" fill="#232323"/>
  <path d="M59.4318 35.8472C59.0974 35.9934 57.6169 36.2132 54.7075 30.8765L49.9346 22.4651C49.9346 22.4651 43.1524 12.8051 37.7944 16.0058C37.7944 16.0058 33.1185 16.978 29.7391 25.2807L26.3245 34.7974C26.3245 34.7974 32.7722 17.4135 41.4298 20.9488C41.4298 20.9488 42.7275 21.5792 42.9432 24.5786L43.2826 27.8085C43.2826 27.8085 43.1177 31.4288 44.3842 31.1561C44.3842 31.1561 45.094 31.3296 45.819 30.15C45.819 30.15 46.5286 28.6919 47.7076 29.1846C47.7076 29.1846 48.0253 29.1904 48.3343 29.9595C48.8887 31.363 49.6439 32.6887 50.6979 33.7721C51.9504 35.0649 53.6762 36.3745 55.5553 36.4445C57.1359 36.6432 57.9553 36.3382 59.4413 35.8452L59.4318 35.8472Z" fill="#CDE5FF"/>
  <path opacity="0.6" d="M33.6953 53.2555L39.1487 52.9318" stroke="#1485FF" stroke-width="1.92428" stroke-linecap="round" stroke-linejoin="round"/>
  <path opacity="0.6" d="M48.1462 45.323L53.2879 42.9551" stroke="#1485FF" stroke-width="1.92428" stroke-linecap="round" stroke-linejoin="round"/>
  <path d="M14.4822 32.1647C15.8227 31.8761 16.6754 30.5554 16.3868 29.2149C16.0982 27.8743 14.7775 27.0216 13.437 27.3103C12.0965 27.5989 11.2437 28.9196 11.5324 30.2601C11.821 31.6006 13.1417 32.4533 14.4822 32.1647Z" fill="#CDE5FF"/>
  <path d="M100.598 54.8311L89.4715 24.5582C89.4715 24.5582 87.6107 18.9018 84.2698 14.7755C84.0815 14.544 83.8868 14.3288 83.6837 14.1204C83.6837 14.1204 77.3467 5.0123 66.7463 8.50616C66.7463 8.50616 62.4201 9.79366 61.1137 12.6362C60.7168 13.5029 60.6844 14.5235 61.1987 15.3275C61.5111 15.8141 62.0457 16.2528 62.9515 16.2802C62.9515 16.2802 64.2183 16.4228 65.1362 15.9779C65.7274 15.7616 66.4768 15.3382 67.3001 14.5231C67.3001 14.5231 68.8159 13.0891 70.7938 13.6176C70.7968 13.6317 70.7979 13.6365 70.8009 13.6506C70.3638 14.0316 69.9824 14.4647 69.6537 14.936L69.1746 15.6276C69.1746 15.6276 76.3846 8.51253 82.7361 17.8944C83.2284 18.6191 83.6558 19.3874 84.0118 20.1909C84.3436 21.4792 85.4784 26.3822 84.1414 28.7616C84.1414 28.7616 82.3954 31.8817 85.0175 32.8302C85.0175 32.8302 87.6329 33.518 88.6471 35.9549C88.6471 35.9549 89.7407 38.1175 89.3229 41.6884C89.3229 41.6884 89.2488 44.9035 92.0777 45.4119C92.0777 45.4119 97.3578 46.0056 94.9906 56.0237L100.595 54.8169L100.598 54.8311Z" fill="#CDE5FF"/>
</svg>