<svg xmlns="http://www.w3.org/2000/svg" width="170" height="104" viewBox="0 0 170 104" fill="none">
  <g style="mix-blend-mode:luminosity" opacity="0.46">
    <path d="M84.5214 18.727L80.3241 11.0814C80.1526 10.7745 79.9359 10.5037 79.6651 10.2871C76.569 7.75964 56.5661 -7.2516 32.113 5.1329C30.1723 6.1168 28.4572 7.52495 27.2838 9.35735C26.1103 11.1897 25.325 13.7352 27.1574 16.1453C27.2477 16.2537 27.3379 16.362 27.4372 16.4613C28.1052 17.1022 31.1562 18.736 34.1079 16.9668C34.3787 16.8043 35.2994 16.1002 35.5431 15.8926C36.6624 14.9629 37.0325 13.9338 38.4858 12.1195C38.4858 12.1195 41.4646 8.32831 46.3118 7.51592C49.6065 6.9653 50.8883 11.6501 47.738 12.7694C47.6658 12.7965 47.6026 12.8145 47.5304 12.8416C47.2596 12.9319 46.9979 13.0673 46.7632 13.2388C45.698 14.0422 44.1996 15.8836 46.4202 17.6708C47.1513 18.2576 48.0359 18.6277 48.9657 18.7811C50.1842 18.9887 52.3326 19.8914 50.771 23.845" fill="#CDE5FF"/>
    <path d="M153.043 33.3591C148.755 8.0575 129.826 18.3478 129.826 18.3478C127.542 19.8462 125.566 21.462 122.966 25.0004C122.966 25.0004 115.727 35.0831 111.439 42.1149C111.439 42.1149 105.427 53.4974 102.196 52.8204C102.196 52.8204 102.142 52.8475 102.042 52.8655C93.5664 52.8655 87.2387 41.0136 87.2387 41.0136C81.8047 20.9655 75.0257 18.5825 75.0257 18.5825C60.6103 8.7345 42.0245 37.9085 42.0064 37.9265L25.3433 64.7084L0.754883 103.703H169.733L165.4 81.9402L153.043 33.3591Z" fill="#8BB9ED"/>
    <path d="M95.5251 71.2617C95.6335 71.8123 95.6876 72.372 95.6876 72.9497C95.6876 77.9143 91.6618 81.9312 86.6971 81.9312C81.7325 81.9312 77.7157 77.9053 77.7157 72.9497C77.7157 72.724 77.7337 72.5074 77.7518 72.2817C74.7369 74.9355 72.8232 78.808 72.8232 83.1407C72.8232 91.1293 79.2953 97.6104 87.2929 97.6104C95.2905 97.6104 101.763 91.1383 101.763 83.1407C101.763 78.2122 99.2983 73.8704 95.5342 71.2617H95.5251Z" fill="white"/>
    <path d="M86.7063 81.9402C91.6709 81.9402 95.6968 77.9143 95.6968 72.9587C95.6968 72.381 95.6336 71.8124 95.5343 71.2708C93.1964 69.646 90.3621 68.6891 87.293 68.6891C83.6373 68.6891 80.3065 70.0612 77.7519 72.2998C77.7339 72.5164 77.7158 72.7421 77.7158 72.9678C77.7158 77.9324 81.7417 81.9492 86.6973 81.9492L86.7063 81.9402Z" fill="black"/>
    <path d="M72.8236 76.6777L68.4547 77.7879C68.897 79.178 69.0143 80.7126 68.6984 82.3103C67.9763 85.966 64.9524 88.8455 61.2605 89.3961C56.2868 90.1363 51.945 86.7875 51.0695 82.22C46.9353 83.2761 44.462 87.5006 45.5723 91.6167L47.179 97.6104L76.2176 89.1705L72.8236 76.6777Z" fill="white"/>
    <path d="M59.8886 89.4955C64.8532 89.4955 68.87 85.4696 68.87 80.514C68.87 79.5662 68.7166 78.6545 68.4458 77.788L51.0605 82.211C51.8549 86.3542 55.5016 89.4955 59.8795 89.4955H59.8886Z" fill="black"/>
    <path d="M102.043 52.8656C101.375 53.001 98.5853 52.8204 95.3719 41.9344L89.9649 24.7026C89.9649 24.7026 81.3806 4.40176 70.3411 8.13877C70.3411 8.13877 61.4228 8.07559 51.99 21.9043L42.0156 37.9356C42.0156 37.9356 60.6194 8.73453 75.0349 18.5916C75.0349 18.5916 77.1562 20.2525 76.3709 25.8129L75.7209 31.8426C75.7209 31.8426 73.9969 38.3869 76.416 38.3869C76.416 38.3869 77.6436 38.9827 79.4309 37.1142C79.4309 37.1142 81.2994 34.7311 83.2582 36.0942C83.2582 36.0942 83.8359 36.2296 84.0976 37.755C84.558 40.5352 85.4155 43.2522 86.9139 45.6443C88.6922 48.4967 91.3279 51.5657 94.731 52.4323C97.5382 53.4162 99.154 53.1815 102.061 52.8656H102.043Z" fill="#CDE5FF"/>
    <path d="M48.2168 74.5294L58.2995 76.082" stroke="#CDE5FF" stroke-width="5.22209" stroke-linecap="round" stroke-linejoin="round"/>
    <path d="M77.7158 65.7285L88.0332 63.4267" stroke="#CDE5FF" stroke-width="5.22209" stroke-linecap="round" stroke-linejoin="round"/>
    <path d="M21.4324 28.4745C23.993 28.4745 26.0688 26.3987 26.0688 23.838C26.0688 21.2774 23.993 19.2016 21.4324 19.2016C18.8717 19.2016 16.7959 21.2774 16.7959 23.838C16.7959 26.3987 18.8717 28.4745 21.4324 28.4745Z" fill="#CDE5FF"/>
    <path d="M169.733 103.703L161.32 44.0646C161.32 44.0646 160.147 33.007 155.67 24.161C155.417 23.6645 155.146 23.1951 154.857 22.7348C154.857 22.7348 146.869 3.61642 126.144 5.82794C126.144 5.82794 117.74 6.47785 114.238 11.1536C113.172 12.5798 112.712 14.4303 113.335 16.1002C113.714 17.1112 114.517 18.1222 116.16 18.5284C116.16 18.5284 118.417 19.2866 120.267 18.8353C121.432 18.6728 122.966 18.1944 124.79 17.0299C124.79 17.0299 128.12 15.008 131.524 16.7501C131.524 16.7772 131.524 16.7862 131.524 16.8133C130.576 17.3369 129.709 17.9777 128.924 18.7089L127.777 19.7831C127.777 19.7831 143.737 9.62814 151.644 29.252C152.258 30.7684 152.736 32.3391 153.07 33.9458C153.169 36.4281 153.314 45.8248 149.938 49.643C149.938 49.643 145.524 54.6528 149.938 57.415C149.938 57.415 154.442 59.6987 155.336 64.546C155.336 64.546 156.482 68.9239 154.316 75.2786C154.316 75.2786 152.917 81.1188 157.881 83.1588C157.881 83.1588 167.287 86.3181 159.028 103.676H169.733V103.703Z" fill="#CDE5FF"/>
  </g>
</svg>